<svg width="130" height="45" fill="none" xmlns="http://www.w3.org/2000/svg"><path fill-rule="evenodd" clip-rule="evenodd" d="M68.044 10.513h1.782l-.689-2.312h-.404l-.689 2.312zm2.149 1.214h-2.497l-.531 1.8h-1.35l2.083-6.66h2.12l2.094 6.66h-1.388l-.531-1.8zm4.237-3.619v5.419h-1.392v-6.66h4.816v1.241H74.43zm9.536 4.177v1.242h-5.001v-6.66h4.899v1.241h-3.517v1.399h2.737v1.212h-2.737v1.566h3.619zm7.037-5.418v6.66H89.61v-2.79h-2.956v2.79h-1.392v-6.66h1.392v2.594h2.956V6.867h1.393zM97.3 8.09h-2.08v5.437h-1.396V8.09h-2.08V6.867H97.3V8.09zm6.482 3.393c-.204 1.313-1.213 2.229-2.759 2.229-2.02 0-3.167-1.406-3.167-3.423 0-2.016 1.157-3.422 3.167-3.422 1.472 0 2.463.833 2.694 2.044h-1.444c-.158-.527-.593-.814-1.25-.814-1.186 0-1.75.962-1.75 2.192 0 1.221.564 2.193 1.75 2.193.713 0 1.194-.37 1.324-1h1.435zm6.112-3.393h-2.08v5.437h-1.396V8.09h-2.08V6.867h5.556V8.09zm5.042 3.431c0-.56-.349-.849-1.065-.849h-1.649v1.67h1.63c.698 0 1.084-.262 1.084-.82zm-.189-2.76c0-.493-.321-.736-.952-.736h-1.573V9.51h1.582c.633-.002.943-.244.943-.748zm1.63 2.834c0 1.11-.726 1.932-2.317 1.932h-3.24v-6.66h3.154c1.489 0 2.214.812 2.214 1.763 0 .607-.273 1.129-.706 1.343v.187c.48.196.895.773.895 1.435zm5.984-1.305c0-1.221-.569-2.193-1.817-2.193-1.239 0-1.817.972-1.817 2.192 0 1.221.578 2.193 1.817 2.193 1.248 0 1.817-.972 1.817-2.193zm1.424 0c0 1.942-1.137 3.422-3.241 3.422-2.106 0-3.241-1.48-3.241-3.423 0-1.942 1.135-3.422 3.241-3.422 2.104 0 3.241 1.48 3.241 3.422zm-56.133 8.786v4.654h.183l2.48-4.654h1.797v6.66H70.82V20.98h-.184l-2.535 4.756H66.37v-6.66h1.282zm11.868 0v6.66h-1.393v-2.79h-2.956v2.79h-1.393v-6.66h1.393v2.594h2.956v-2.594h1.393zm7.223 0v6.66h-1.392v-2.79h-2.956v2.79h-1.393v-6.66h1.393v2.594h2.956v-2.594h1.392zm6.169 3.422c0-1.22-.568-2.192-1.816-2.192-1.24 0-1.817.971-1.817 2.192s.578 2.192 1.817 2.192c1.248 0 1.816-.97 1.816-2.192zm1.425 0c0 1.943-1.137 3.423-3.241 3.423-2.106 0-3.242-1.48-3.242-3.423 0-1.942 1.136-3.422 3.242-3.422 2.104 0 3.24 1.48 3.24 3.422zm5.411 1.232c0-.56-.348-.849-1.065-.849h-1.648v1.67h1.63c.698 0 1.083-.262 1.083-.82zm-.189-2.76c0-.493-.32-.736-.952-.736h-1.572v1.484h1.582c.633-.002.942-.244.942-.748zm1.63 2.834c0 1.11-.726 1.932-2.317 1.932h-3.24v-6.66h3.155c1.489 0 2.213.812 2.213 1.763 0 .607-.272 1.129-.705 1.343v.187c.479.196.894.773.894 1.435zm2.786-1.082h1.782l-.689-2.312h-.404l-.689 2.312zm2.148 1.214h-2.496l-.532 1.8h-1.35l2.084-6.66h2.12l2.093 6.66h-1.387l-.532-1.8zm7.992 1.826h-5.147v-6.686h1.372v5.44h2.799v-5.44h1.372v5.44h.939v2.885h-1.335v-1.64zm3.728-6.686v4.654h.184l2.478-4.654h1.798v6.66h-1.291V20.98h-.183l-2.536 4.756h-1.731v-6.66h1.281zm10.735-1.666c-.074.875-.7 1.419-1.743 1.419-1.041 0-1.669-.544-1.741-1.419h1.013c.037.313.276.572.728.572.443 0 .681-.248.728-.572h1.015zm-3.327 1.75v4.595h.184l2.48-4.595h1.796v6.575h-1.291v-4.697h-.185l-2.534 4.697h-1.731V19.16h1.281zM66.37 31.473h2.176l1.084 2.658h.185l1.084-2.658h2.139v6.66h-1.299v-5.195h-.187l-1.213 2.965h-1.27l-1.213-2.965h-.188v5.194H66.37v-6.66zm12.837 3.237c0-1.22-.568-2.192-1.816-2.192-1.24 0-1.817.971-1.817 2.192s.578 2.192 1.817 2.192c1.248 0 1.816-.97 1.816-2.192zm1.425 0c0 1.943-1.138 3.422-3.241 3.422-2.106 0-3.242-1.48-3.242-3.422 0-1.942 1.136-3.422 3.242-3.422 2.103 0 3.24 1.48 3.24 3.422zm6.852 1.194c-.203 1.313-1.213 2.228-2.76 2.228-2.018 0-3.166-1.405-3.166-3.422 0-2.016 1.157-3.422 3.167-3.422 1.472 0 2.463.832 2.695 2.044h-1.445c-.158-.527-.593-.814-1.25-.814-1.186 0-1.75.962-1.75 2.192 0 1.221.564 2.192 1.75 2.192.713 0 1.194-.37 1.324-.998h1.435zm1.296-4.431h1.399v2.602h1.546l1.269-2.602h1.442L92.9 34.71l1.623 3.422h-1.445l-1.34-2.799H90.18v2.8h-1.4v-6.66zm10.784 4.654c0-.56-.349-.85-1.065-.85H96.85v1.671h1.63c.698 0 1.084-.262 1.084-.821zm-.19-2.76c0-.494-.32-.736-.951-.736H96.85v1.483h1.582c.633-.002.943-.244.943-.747zm1.63 2.834c0 1.11-.726 1.931-2.317 1.931h-3.239v-6.66h3.154c1.489 0 2.214.813 2.214 1.764 0 .606-.273 1.128-.706 1.343v.186c.48.197.894.774.894 1.436zm7.125 1.931h1.395v-6.66h-1.395v6.66zm-2.174-2.201c0-.625-.337-.979-1.265-.979h-1.18v1.96h1.18c.928 0 1.265-.347 1.265-.981zm-3.84 2.201v-6.66h1.395v2.258h1.394c1.565 0 2.482.83 2.482 2.192 0 1.38-.918 2.21-2.482 2.21h-2.789zm-90.973 1.105c-.29.36-.734.481-.996.272-.23-.185-.237-.568-.037-.902a.698.698 0 00-.41.274c-.248.358-.104.891.325 1.19.43.302.98.253 1.229-.103.173-.248.153-.582-.02-.863-.026.044-.056.09-.091.132zm14.698-25.39c-.517-.495-.364-1.473-.364-1.473-.218.183-.496 1.46-.035 2.107.534.75 1.012.854 1.435 1.671.052-.116-.014-.408-.124-.627-.166-.333-.23-.609.16-.723 1.108-.321 2.137 1.275 2.742 1.248.846-.036 1.035-.795 1.072-.831.036-.037-.445.328-.99.263-.862-.104-1.262-1.072-2.231-1.27-.62-.126-1.145.132-1.665-.365zm-.588 17.781c-.288.421-.068 1.016.694 1.238.687.2 1.142.409 1.478.748.494.493.725.555.843.552L7.167 4.913l-.28.203L24.48 29.51c.202.28 1.026 1.744.772 2.118zm-.082 1.333c-.803.02-1.723.306-2.65-.552-1.202-1.11-2.454-.4-2.454-.4s.791.788.35 1.113c-.716.53-.189 1.15-.252 1.394-.065.241-.786.291-1.994-.26a2.978 2.978 0 00-1.729-.24c-.313.052-.208.279-.139.344 0 0 .509.465.706.594.16.101.564.437.715.328.147-.105-.174-.7-.174-.7s2.381.795 3.214.795c.967 0 .061-1.61.822-1.686.384-.04.864.56 1.653.673.552.08 1.082-.154 1.624-.29.576-.143.794.571.874 1.2.014.103.035.363.146.554.19-.907.443-2.894-.713-2.867zm6.025 1.862c-.314-.845-.913-.48-1.181-.574-.269-.093-.616-.427-.728-1.325-.112-.898-.875-.413-.875-.413s.883 1.771 1.238 2.714c.357.942.657.212 1.091.729.437.517.387 3.173.139 4.028a4.873 4.873 0 01-1.666 2.468c.614-.071 1.76-1.276 2.081-2.066.37-.907.158-1.744.158-1.744l.516-.046-.315-.823.499-.076c.003 0-.645-2.03-.957-2.872zm-20.516 1.68a5.021 5.021 0 00-1.986-.115c-.696.104-1.257.3-1.84.27-.579-.013-1.122-.24-1.476-.66-.16-.184-.274-.4-.358-.63.28-.578.824-1.165 1.794-1.704 3.39-1.885 2.268-4.01 2.057-6.474-.107-1.25.147-2.39.79-2.968.907-.818 2.432-.717 2.432-.717-.173-.223-2.216-.954-3.776-.502-1.67.486-1.98 1.695-2.268 2.555-.248.746-.573 1.623-2.05 2.243-2.483 1.042-2.316 2.996-2.316 2.996s-.9-1.93 1.513-3.561c3.065-2.07 1.885-3.662 2.91-4.611.8-.74 1.758-.622 3.22-.223-.262-.31-4.147-1.94-4.597 1.52-.382 2.942-3.19 2.532-3.679 5.3-.342 1.963 1.515 3.608 1.515 3.608s-1.485-2.973 1.435-4.175c2.02-.83 3.17-1.788 3.47-2.734-.017.303-.014.624-.006.976.032 1.331.665 2.37.47 4.242-.107 1.03-1.989 2.058-3.039 3.116.036-.474.164-.935.401-1.315.265-.405.7-.84.89-1.32a2.4 2.4 0 00-.122-2.2c-.048.02-.092.038-.136.052.213.499.331 1.256-.08 1.99-.203.422-.565.72-.95 1.213a3.332 3.332 0 00-.625 1.775c-.01.212.011.43.047.65-.43 1.124.06 2.576.452 3.248.469.8.91 1.385.68 2.313-.23.93.577.608 1.148.617l.539.003c.376-.001.53-.274.3-.643-.4-.637-1.034-1.58-1.54-1.984-.451-.361-1.189-1.31-1.12-2.41.666.792 1.416 1.041 2.035 1.098.727.064 1.414-.21 1.973-.298a4.465 4.465 0 011.734.055 3.42 3.42 0 011.418.718c.387.33.6.77.712 1.195.21.836-.365 1.62-.829 2.031.028.032.065.062.096.09.812-.489 1.25-1.342 1.091-2.36-.148-1.002-1.054-1.961-2.329-2.27zm-.661-15.657c.996 1.052 2.067.629 2.545.686.478.055 1.03 1.282.739 2.471-.29 1.19-.406.984-.605 1.73-.25.94.915 1.613.645 2.48-.075.24-.242.586-.04.855.314.423.824-.134 1.467-.039a1.85 1.85 0 001.167-.229c-.076-.367-1.527-.142-1.852-.735-.143-.261-.523-2.964.319-4.172.773-1.108.055-1.454-.474-2.349a97.573 97.573 0 012.431-1.247c.56.643.954 1.198 1.294 1.974.18.385.303.8.289 1.216.01.423-.147.84-.414 1.216.354-.055.677-.687.775-1.175.093-.489.022-.992-.11-1.457-.493-1.508-1.64-2.586-1.64-2.586s-1.55.531-2.988 1.312c-.454-.852-.91-.7-1.477-.652-.562.05-.901-.544-.901-.544.436.14 1.042.163 1.855-.157 1.822-.72 1.13-2.226 1.13-2.226s.038 1.093-1.051 1.248c-.677.095-2.455-.345-2.455-.345s1.424-.166 1.715-.986c.394-1.123 1.525-.681 1.525-.681s-.603-.71-1.533-.155c-.567.342-1.508.451-2.663-.134-1.152-.583-1.57.385-1.804.409-.232.026-.414-.355-.284-.753.13-.399 1.455-.774 3.45-.85 1.316-.05 1.962.208 2.248.391.003-.108-.352-.596-1.437-.862-1.085-.268-1.014-.712-.963-1.476.05-.765-1.061-.46-1.331-.556-.27-.096-.02-.697-.02-.697-.387.112-.684.426-.67.894.008.313.308.538.606.685.299.148.348.416-.19.729-.433.252-1.056.58-1.89.938-1.855.795.462 2.165-.353 2.585-.818.42-1.017.968-1.063 1.268-.1.68.354 1.186.354 1.186 1.595-.866 2.657-.26 3.654.79zm9.44-2.43c0-.682.176-1.01.364-1.018.574-.023.697.79.705 1.011.024.648-.454.959-.454.959.41.035.734-.533.787-.894.078-.535-.017-.72-.206-1.074 0 0 1.201 1.162 1.073 2.452-.145 1.462-1.793 2.229-1.793 2.229.488.175 1.9.033 2.804-1.119.499-.635.717-1.602.112-3.127-.548-1.384-1.593-2.556-.482-5.209 1.084-2.586 3.95-2.924 5.674-1.695a.576.576 0 01.214.276c.112.306-.693.706-.34.89.242.129.56.162.834.37.252.19.302.353.43.471.096.09.139.108.232.108-.78-.913-.91-1.954-1.036-3.054-.612-.157-1.583-.654-2.543-.766-.602-.071-2.058-.166-3.518.552-1.646.807-3.386 2.38-3.386 6.024-.001 1.568.53 2.703.53 2.614zM1.148 26.9c.847-.23.847-.86.858-.989.136.18.183.377.186.633.375-.488.285-1.333-.633-1.838 0 0 .052 1.11-.658 1.502-.74.407-.856.667-.897 1.069a.868.868 0 00.128.56c.096.16.259.271.412.309-.224-.301-.268-1.01.603-1.246zm17.734-15.518c-2.078.118-2.804-.626-4.224-1.31-1.424-.687-2.648-.185-2.862.138.661.041 1.413.304 2.839 1.199 2.877 1.807 4.247-.027 4.247-.027zm-.931-4.408c-.302.08-1.033.199-.692 1.885.343 1.687 1.254 1.278 1.498 1.062 0 0-1.238-.129-1.274-1.59-.035-1.466 1.655-1.196 1.655-1.196-.101-.114-.71-.289-1.188-.161zm18.514 21.443c-.409-1.455-1.713-4.423-2.605-5.777-.897-1.354-1.355-.383-1.712-.077-.358.306-1.406 2.07-1.866-.203-.46-2.276-2.809-4.246-2.809-4.246.485 1.713.355 2.967.23 4.066-.127 1.098.152 1.482.152 2.145 0 .665-1.99 1.1-2.095 1.611-.101.512 2.964 2.61 5.882.507.878-.633 1.424 1.821 1.703 2.485.283.666-.28.87.384 1.637.665.767.153 1.413.153 1.891 0 .448 1.317 1.574 1.559 1.328.424-.423-.537-2.94-.92-3.809-.383-.87-.996-3.682-1.428-4.449-.25-.438-1.532-.127-1.532-.127l-.09-.34s.178-.228.343-.402c1.33-1.381 1.227-.818 2.607.87 1.378 1.685-.283 2.352.917 3.221 1.201.87 1.535 1.126 1.127-.33zM14.594 5.797s.255.087.745.098c.49.01.732-.444.732-.444-1.192-.119-1.54-.54-1.54-.54s1.136-.058 1.711-.134c.575-.077 1.623-.358 1.623-.358s-.04.94-.047 1.486c-.005.545.696.425.93.351.295-.093.34-1.18.39-2.111.036-.704-.485-.71-.783-.585-.44.183-1.273.612-2.175.887-.901.275-2.313.075-2.313.075l-.077.293 1.187.73-.383.252zm1.953 4.464l.322-.138s-.246-.72-.264-1.358c-.014-.64.248-2.054.248-2.054h-.305S16.41 7.75 16.23 8.66c-.178.91-.655.732-.888.714-.234-.017-2.088-.284-2.088-.284v.273l1.055.152c.938.135 2.239.745 2.239.745zm1.156 4.005c-.765.49-2.021.248-2.021.248.168.236 1.08.517 1.539.51.398-.009.75-.166 1.063-.51.682-.746.404-1.989.238-2.145.002 0-.074 1.42-.82 1.897zm-1.769 22.128c-1.757-1.754-1.116-1.577 0-3.142.826-1.159 4.857-2.182 6.888-2.632l-.04-.186c-1.03.046-2.572.1-4.121.098-2.654-.002-3.725-1.012-4.413-.885-2.639.494-.763 3.52-3.858 3.091-3.096-.427-2.993 2.782-2.993 2.782.878-1.785 1.786-1.534 2.485-1.564.81-.035 1.6.563 2.736-.393.25-.208 1.38-2.039 1.218-1.124-.095.534-.558 1.145-.927 1.564-.264.3-.417.529.12.831l.767.442c1.254.72 1.046 1.539.23 1.498-.582-.032-1.269-.317-1.845-.377-.234-.023-.499.073-.13.25.195.092.414.226.607.417.919.92-.18.557 2.452.415.56-.032.958-.084 1.241-.142 1.047-.229-.186-.714-.417-.943zm13.537 1.53c-.212-.33-.383-.792-.58-1.205-.42-.879-.008-.71-.267-1.216-.29-.56-.436-.011-1.167-1.13-.143-.223-.434-.125-.469.41-.037.535.86 1.04 1.268 2.336.412 1.3.75 1.45.416 2.246-.33.798-1.958.75-1.958.75 1.27 1.322 3.856-.482 2.757-2.191zm13.689 6.103l-.53-.192L58.21.974l.527.192L43.16 44.027z" fill="#fff"/></svg>